HIERARCHY
ROOT Hips
{
	OFFSET -3.958830 18.904000 13.208200
	CHANNELS 6 Xposition Yposition Zposition Zrotation Yrotation Xrotation 
	JOINT LHipJoint
	{
		OFFSET 0.000000 0.000000 0.000000
		CHANNELS 3 Zrotation Yrotation Xrotation
		JOINT LeftUpLeg
		{
			OFFSET 1.800000 -1.400000 0.085000
			CHANNELS 3 Zrotation Yrotation Xrotation
			JOINT LeftLeg
			{
				OFFSET 2.215000 -6.000000 0.000000
				CHANNELS 3 Zrotation Yrotation Xrotation
				JOINT LeftFoot
				{
					OFFSET 2.500000 -6.900000 0.000000
					CHANNELS 3 Zrotation Yrotation Xrotation
					JOINT LeftToeBase
					{
						OFFSET 0.200000 -0.500000 1.950000
						CHANNELS 3 Zrotation Yrotation Xrotation
						End Site
						{
							OFFSET 0.000000 0.000000 0.000000
						}
					}
				}
			}
		}
	}
	JOINT RHipJoint
	{
		OFFSET 0.000000 0.000000 0.000000
		CHANNELS 3 Zrotation Yrotation Xrotation
		JOINT RightUpLeg
		{
			OFFSET -1.800000 -1.400000 0.085000
			CHANNELS 3 Zrotation Yrotation Xrotation
			JOINT RightLeg
			{
				OFFSET -2.215000 -6.000000 0.000000
				CHANNELS 3 Zrotation Yrotation Xrotation
				JOINT RightFoot
				{
					OFFSET -2.500000 -6.900000 0.000000
					CHANNELS 3 Zrotation Yrotation Xrotation
					JOINT RightToeBase
					{
						OFFSET -0.200000 -0.500000 1.950000
						CHANNELS 3 Zrotation Yrotation Xrotation
						End Site
						{
							OFFSET 0.000000 0.000000 0.000000
						}
					}
				}
			}
		}
	}
	JOINT LowerBack
	{
		OFFSET 0.000000 0.000000 0.000000
		CHANNELS 3 Zrotation Yrotation Xrotation
		JOINT Spine
		{
			OFFSET -0.087000 1.940000 -0.288900
			CHANNELS 3 Zrotation Yrotation Xrotation
			JOINT Spine1
			{
				OFFSET 0.000000 1.950000 0.060000
				CHANNELS 3 Zrotation Yrotation Xrotation
				JOINT Neck
				{
					OFFSET 0.000000 0.000000 0.000000
					CHANNELS 3 Zrotation Yrotation Xrotation
					JOINT Neck1
					{
						OFFSET 0.000000 1.600000 0.340000
						CHANNELS 3 Zrotation Yrotation Xrotation
						JOINT Head
						{
							OFFSET 0.000000 1.667000 -0.240000
							CHANNELS 3 Zrotation Yrotation Xrotation
							End Site
							{
								OFFSET 0.000000 0.000000 0.000000
							}
						}
					}
				}
				JOINT LeftShoulder
				{
					OFFSET 0.000000 0.000000 0.000000
					CHANNELS 3 Zrotation Yrotation Xrotation
					JOINT LeftArm
					{
						OFFSET 2.700000 1.550000 -0.730000
						CHANNELS 3 Zrotation Yrotation Xrotation
						JOINT LeftForeArm
						{
							OFFSET 5.450000 0.000000 0.000000
							CHANNELS 3 Zrotation Yrotation Xrotation
							JOINT LeftHand
							{
								OFFSET 3.450000 0.000000 0.000000
								CHANNELS 3 Zrotation Yrotation Xrotation
								JOINT LeftHandIndex1
								{
									OFFSET 0.750000 0.000000 0.000000
									CHANNELS 3 Zrotation Yrotation Xrotation
									End Site
									{
										OFFSET 0.000000 0.000000 0.000000
									}
								}
							}
						}
					}
				}
				JOINT RightShoulder
				{
					OFFSET 0.000000 0.000000 0.000000
					CHANNELS 3 Zrotation Yrotation Xrotation
					JOINT RightArm
					{
						OFFSET -2.700000 1.550000 -0.730000
						CHANNELS 3 Zrotation Yrotation Xrotation
						JOINT RightForeArm
						{
							OFFSET -5.450000 0.000000 0.000000
							CHANNELS 3 Zrotation Yrotation Xrotation
							JOINT RightHand
							{
								OFFSET -3.450000 0.000000 0.000000
								CHANNELS 3 Zrotation Yrotation Xrotation
								JOINT RightHandIndex1
								{
									OFFSET -0.750000 0.000000 0.000000
									CHANNELS 3 Zrotation Yrotation Xrotation
									End Site
									{
										OFFSET 0.000000 0.000000 0.000000
									}
								}
							}
						}
					}
				}
			}
		}
	}
}
MOTION
Frames: 9
Frame Time: 0.016667
-0.106430 17.166720 -2.321010 0.624515 -7.589189 -0.497827 -15.246095 14.367093 3.501602 5.133165 -2.556321 -11.343217 -15.000188 10.479576 21.694668 0.799057 5.565446 2.694629 0.121400 -0.375850 0.343040 18.001371 -9.331804 4.036457 1.241042 6.723893 -36.610633 7.506403 -5.545120 23.645824 -0.081626 -2.193821 3.744223 -0.602860 -0.157450 0.078250 -2.866713 -5.302144 -8.654905 6.820214 -7.576072 18.005849 -3.824379 -6.390199 -28.854985 7.104600 -8.234669 -12.632817 -28.155818 16.659692 45.558332 9.185260 3.372980 14.207410 -13.478264 24.548912 0.825003 -64.709926 17.503717 -12.060027 83.782971 -75.119239 -61.734153 -2.316957 0.095089 0.635990 -0.295640 0.212220 0.073200 4.432404 -20.036064 5.778665 69.686374 -24.191644 -17.664742 15.544857 48.580285 8.234692 2.464130 -1.208389 0.074970 -0.269080 -0.254340 -0.140880 
-0.108020 17.185330 -2.299250 -0.353876 -8.360894 -0.418665 -15.269988 14.491359 3.472169 5.593340 -2.429141 -11.424663 -13.976836 10.198248 21.740948 0.755593 5.439057 2.710419 0.141140 -0.368030 0.388260 17.952772 -9.324658 4.063179 1.743661 6.844058 -35.369578 8.758199 -5.546707 21.893053 -0.082698 -2.057022 3.789021 -0.606040 -0.213930 0.086680 -2.739786 -5.472919 -8.729284 7.370454 -6.982095 17.918670 -3.402603 -5.153821 -28.812937 7.484340 -7.607941 -13.067019 -26.936280 16.068535 48.214141 7.335780 4.240950 14.472570 -13.440720 24.435387 0.985556 -64.440369 18.911411 -12.118422 85.474390 -77.020175 -65.554116 -2.279053 -0.329378 0.660100 -0.315460 0.241930 0.054890 3.672502 -19.614475 6.477187 70.086674 -24.981008 -18.454146 16.018982 50.138708 8.671768 2.441592 -1.255464 0.088350 -0.297160 -0.266130 -0.166400 
-0.143210 17.205710 -2.252870 -0.953013 -9.285594 -0.480227 -15.334295 14.615175 3.435252 5.569840 -2.336450 -11.635049 -12.166063 9.877202 22.726528 0.703244 5.317533 2.731074 0.149000 -0.393610 0.456290 17.838616 -9.445650 4.084761 1.664956 6.713206 -33.452967 10.863980 -5.584595 19.325059 -0.089638 -1.958524 3.819367 -0.623150 -0.280040 0.095630 -2.440489 -5.424934 -8.884959 5.247895 -5.535276 17.605200 -0.662524 -2.844475 -28.228664 7.488548 -6.210148 -13.908002 -23.336778 14.240980 52.112538 4.726010 5.337920 15.346700 -11.523687 24.871709 1.853466 -64.635806 21.605698 -13.590682 82.166306 -84.452198 -71.539771 -2.298255 -1.147755 0.698910 -0.333130 0.274080 0.029440 1.895186 -19.893571 7.355636 70.405305 -26.736386 -19.639947 19.201203 53.920267 10.685078 2.394798 -1.377862 0.085270 -0.330500 -0.282070 -0.211660 
-0.172530 17.219760 -2.188180 -1.927436 -9.984181 -0.067206 -15.409927 14.702026 3.360440 5.608439 -2.286729 -12.197440 -9.950031 9.422122 23.869659 0.673039 5.174177 2.770368 0.122980 -0.439510 0.486960 17.727234 -9.532156 4.140494 1.424458 6.673008 -31.907677 13.421124 -5.776526 17.120051 -0.088528 -2.017757 3.810269 -0.656600 -0.302270 0.111190 -2.134907 -5.354341 -9.030139 3.708148 -4.148895 16.481948 1.908362 -0.564890 -27.647536 7.481408 -4.662164 -13.972004 -18.648427 11.329825 54.307597 1.238150 6.510480 17.507330 -10.543313 25.832870 2.523914 -62.663728 24.995718 -15.759697 -116.859330 -86.188622 113.949406 -2.495391 0.903596 0.677310 -0.307280 0.272200 0.007000 0.868188 -21.054691 7.697539 69.568409 -28.393307 -20.342982 20.505606 55.927425 11.739742 2.375134 -1.477873 0.093810 -0.364570 -0.282670 -0.229850 
-0.206750 17.239500 -2.130550 -2.734832 -10.918386 0.288644 -15.465736 14.695775 3.249378 5.229417 -2.210107 -12.625103 -7.394536 8.813891 25.213586 0.631225 5.000847 2.802157 0.126340 -0.455920 0.540450 17.650119 -9.706784 4.177609 1.778177 6.590913 -30.267615 14.777207 -5.693913 15.222597 -0.094490 -2.039514 3.801577 -0.674150 -0.356180 0.140820 -1.895438 -4.963910 -9.087659 1.910184 -2.523722 14.924369 5.163510 1.783731 -26.625405 6.669592 -2.761511 -14.215477 -13.825607 8.287760 56.785668 -2.086530 7.541250 18.700440 -8.260540 25.864257 3.354288 -61.543875 27.877405 -11.526944 -102.589418 -83.725111 90.589632 -3.209189 0.071573 0.664640 -0.294340 0.287120 -0.023330 -0.043649 -21.893497 7.633564 69.228856 -28.828403 -21.205032 17.319341 55.928807 10.326632 2.369577 -1.502848 0.120170 -0.419860 -0.291990 -0.256930 
-0.239920 17.273980 -2.074030 -3.404660 -12.171926 0.392369 -15.519855 14.686924 3.143505 4.775306 -2.055894 -12.610097 -5.039562 8.109905 25.952331 0.570687 4.782434 2.849626 0.157910 -0.425470 0.609500 17.580197 -9.890780 4.178175 2.274795 6.314521 -28.172110 15.839341 -5.580361 13.419456 -0.136217 -2.049379 3.797593 -0.665830 -0.427480 0.145090 -1.656879 -4.580620 -9.086269 0.240092 -1.106012 13.384342 7.872595 3.827936 -26.195274 6.138504 -1.097492 -14.682727 -10.239751 6.252672 60.856089 -4.210020 8.281440 18.046020 -7.176344 25.437741 4.502512 -58.838925 31.033512 -10.340620 -106.564697 -78.802583 87.840752 -3.114540 1.599039 0.696400 -0.317250 0.334820 -0.047040 -0.145859 -22.281114 7.675153 69.070055 -29.473895 -22.372075 11.726154 56.016449 7.989272 2.346501 -1.469629 0.134830 -0.431570 -0.312440 -0.289030 
-0.279710 17.291020 -2.022680 -3.223561 -13.800024 0.582511 -15.548928 14.569168 3.063307 3.295003 -1.906492 -12.557897 -2.915862 7.343863 26.333652 0.523880 4.541832 2.918957 0.161350 -0.428470 0.645850 17.559392 -10.109913 4.138378 2.825128 5.899815 -26.425038 15.991179 -5.432480 12.277685 -0.153584 -2.070015 3.785555 -0.669760 -0.464650 0.153100 -1.518699 -3.996032 -8.965134 -2.231381 0.099342 11.514346 10.548613 5.053876 -25.576191 5.359858 0.004082 -14.986111 -7.615680 4.836590 62.514538 -5.206000 8.888000 18.001990 -4.922449 25.494239 5.850762 -56.056262 33.977387 -8.726577 -110.397825 -74.241709 87.212595 -2.956333 2.662513 0.709440 -0.322970 0.354710 -0.070220 -0.887379 -23.264391 7.228762 68.998251 -29.362261 -22.815093 6.110117 54.564779 5.680278 2.355686 -1.410001 0.139760 -0.450990 -0.316600 -0.311010 
-0.315300 17.311330 -1.978340 -2.671652 -14.428996 0.269356 -15.560728 14.450822 3.034595 1.822346 -1.846358 -12.445652 -1.253804 6.754913 26.924542 0.476107 4.403908 2.940062 0.196220 -0.395370 0.703460 17.553605 -10.318891 4.054390 2.892633 5.127213 -24.356795 15.702816 -5.057668 10.136264 -0.178835 -1.998836 3.795805 -0.650860 -0.516430 0.154770 -1.465024 -3.484252 -8.824940 -4.548385 0.627203 9.991868 13.099518 5.625400 -24.974359 4.356360 0.280752 -15.427603 -7.256208 4.725415 65.463764 -4.958470 8.760880 16.776960 -3.034966 25.020553 7.358171 -53.266360 36.552132 -7.104775 -113.611117 -70.221003 86.970390 -2.849143 3.224672 0.749010 -0.354040 0.393040 -0.097990 -0.780415 -23.398623 6.611430 68.361342 -28.736703 -22.588871 1.596191 52.250016 3.791763 2.383690 -1.315602 0.146130 -0.451850 -0.323200 -0.338320 
-0.330480 17.329040 -1.936250 -2.524711 -14.538733 0.050466 -15.540020 14.420146 3.028638 0.850855 -1.885196 -12.504251 0.750819 6.139187 28.274026 0.450060 4.375350 2.920110 0.252050 -0.335310 0.747000 17.562794 -10.454202 4.039028 2.976227 4.575824 -22.857336 15.218194 -4.633564 7.984324 -0.206934 -1.911010 3.817493 -0.616700 -0.567960 0.159810 -1.494806 -3.210793 -8.806589 -5.070281 0.626583 9.153192 14.088998 5.752998 -25.007202 3.613244 0.169281 -16.138812 -7.816218 5.264005 68.462979 -4.100910 8.518780 16.178850 -1.703765 24.438131 8.680750 -49.462622 39.357431 -5.717754 -119.129959 -67.185451 90.695321 -2.776025 3.530754 0.788300 -0.385920 0.435050 -0.099350 -0.697082 -23.038699 6.297359 68.015017 -28.419457 -22.500824 -1.870505 50.880368 2.458489 2.391517 -1.270311 0.159450 -0.462380 -0.347000 -0.356110 
